<svg enable-background="new 0 0 64 64" viewBox="0 0 64 64" xmlns="http://www.w3.org/2000/svg"><circle cx="32" cy="32" fill="#c75c5c" r="32"/><path d="m25 43.3v7.9c0 .5.6 1.3 1 1.5l5.3 3c.4.2 1.1.2 1.5 0l5.3-3c.4-.2 1-1.1 1-1.5v-7.9c-2.1 1.1-4.5 1.7-7 1.7-2.6 0-5-.6-7.1-1.7z" fill="#231f20" opacity=".2"/><path d="m25 41.3v7.9c0 .5.6 1.3 1 1.5l5.3 3c.4.2 1.1.2 1.5 0l5.3-3c.4-.2 1-1.1 1-1.5v-7.9c-2.1 1.1-4.5 1.7-7 1.7-2.6 0-5-.6-7.1-1.7z" fill="#e0e0d1"/><circle cx="32" cy="34.6" fill="#231f20" opacity=".2" r="14.4"/><circle cx="32" cy="32" fill="#fff" r="14.4"/><g fill="#231f20"><path d="m33.5 15.5c0 .8-.7 1.5-1.5 1.5-.8 0-1.5-.7-1.5-1.5v-2c0-.8.7-1.5 1.5-1.5.8 0 1.5.7 1.5 1.5z" opacity=".2"/><path d="m50.5 35.5c-.8 0-1.5-.7-1.5-1.5 0-.8.7-1.5 1.5-1.5h2c.8 0 1.5.7 1.5 1.5 0 .8-.7 1.5-1.5 1.5z" opacity=".2"/><path d="m13.5 32.5c.8 0 1.5.7 1.5 1.5 0 .8-.7 1.5-1.5 1.5h-2c-.8 0-1.5-.7-1.5-1.5 0-.8.7-1.5 1.5-1.5z" opacity=".2"/><path d="m24 17.2c.4.7.2 1.6-.5 2-.7.4-1.6.2-2-.5l-1-1.7c-.4-.7-.2-1.6.5-2 .7-.4 1.6-.2 2 .5z" opacity=".2"/><path d="m48.8 26c-.7.4-1.6.2-2-.5-.4-.7-.2-1.6.5-2l1.7-1c.7-.4 1.6-.2 2 .5.4.7.2 1.6-.5 2z" opacity=".2"/><path d="m15.2 42c.7-.4 1.6-.2 2 .5.4.7.2 1.6-.5 2l-1.7 1c-.7.4-1.6.2-2-.5-.4-.7-.2-1.6.5-2z" opacity=".2"/><path d="m16.7 23.5c.7.4 1 1.3.5 2-.4.7-1.3 1-2 .5l-1.7-1c-.7-.4-1-1.3-.5-2 .4-.7 1.3-1 2-.5z" opacity=".2"/><path d="m47.3 44.5c-.7-.4-1-1.3-.5-2 .4-.7 1.3-1 2-.5l1.7 1c.7.4 1 1.3.5 2-.4.7-1.3 1-2 .5z" opacity=".2"/><path d="m42.5 18.7c-.4.7-1.3 1-2 .5-.7-.4-1-1.3-.5-2l1-1.7c.4-.7 1.3-1 2-.5.7.4 1 1.3.5 2z" opacity=".2"/></g><circle cx="32" cy="32" fill="#fff" r="14.4"/><path d="m33.5 13.5c0 .8-.7 1.5-1.5 1.5-.8 0-1.5-.7-1.5-1.5v-2c0-.8.7-1.5 1.5-1.5.8 0 1.5.7 1.5 1.5z" fill="#e0e0d1"/><path d="m50.5 33.5c-.8 0-1.5-.7-1.5-1.5 0-.8.7-1.5 1.5-1.5h2c.8 0 1.5.7 1.5 1.5 0 .8-.7 1.5-1.5 1.5z" fill="#e0e0d1"/><path d="m13.5 30.5c.8 0 1.5.7 1.5 1.5 0 .8-.7 1.5-1.5 1.5h-2c-.8 0-1.5-.7-1.5-1.5 0-.8.7-1.5 1.5-1.5z" fill="#e0e0d1"/><path d="m24 15.2c.4.7.2 1.6-.5 2-.7.4-1.6.2-2-.5l-1-1.7c-.4-.7-.2-1.6.5-2 .7-.4 1.6-.2 2 .5z" fill="#e0e0d1"/><path d="m48.8 24c-.7.4-1.6.2-2-.5-.4-.7-.2-1.6.5-2l1.7-1c.7-.4 1.6-.2 2 .5.4.7.2 1.6-.5 2z" fill="#e0e0d1"/><path d="m15.2 40c.7-.4 1.6-.2 2 .5.4.7.2 1.6-.5 2l-1.7 1c-.7.4-1.6.2-2-.5-.4-.7-.2-1.6.5-2z" fill="#e0e0d1"/><path d="m16.7 21.5c.7.4 1 1.3.5 2-.4.7-1.3 1-2 .5l-1.7-1c-.7-.4-1-1.3-.5-2 .4-.7 1.3-1 2-.5z" fill="#e0e0d1"/><path d="m47.3 42.5c-.7-.4-1-1.3-.5-2 .4-.7 1.3-1 2-.5l1.7 1c.7.4 1 1.3.5 2-.4.7-1.3 1-2 .5z" fill="#e0e0d1"/><path d="m42.5 16.7c-.4.7-1.3 1-2 .5-.7-.4-1-1.3-.5-2l1-1.7c.4-.7 1.3-1 2-.5.7.4 1 1.3.5 2z" fill="#e0e0d1"/></svg>