<svg enable-background="new 0 0 64 64" viewBox="0 0 64 64" xmlns="http://www.w3.org/2000/svg"><circle cx="32" cy="32" fill="#e0995e" r="32"/><g fill="#231f20" opacity=".2"><path d="m54.1 21.2c-.9-1.5-2.9-3.3-7.7-3.3-1.6 0-3.5.2-5.4.6-2-6.2-5.2-10-9-10s-7 3.9-9 10c-1.9-.4-3.8-.6-5.4-.6-4.8 0-6.8 1.8-7.7 3.3-1.9 3.3-.1 8 4.2 12.8-4.3 4.8-6.1 9.5-4.2 12.8.9 1.5 2.9 3.3 7.7 3.3 1.6 0 3.5-.2 5.4-.6 2 6.2 5.2 10 9 10s7-3.9 9-10c1.9.4 3.8.6 5.4.6 4.8 0 6.8-1.8 7.7-3.3 1.9-3.2.1-7.9-4.2-12.8 4.3-4.8 6.1-9.5 4.2-12.8zm-7.7-.3c2.6 0 4.4.7 5.1 1.8 1.1 1.9-.3 5.3-3.7 9.1-1.5-1.4-3.1-2.7-5-4.1-.2-2.3-.6-4.4-1-6.3 1.6-.3 3.2-.5 4.6-.5zm-10.4 20.1c-1.3.8-2.7 1.5-4 2.1-1.3-.6-2.7-1.3-4-2.1-1.4-.8-2.7-1.6-3.9-2.4-.1-1.5-.2-3-.2-4.6s.1-3.1.2-4.6c1.2-.8 2.5-1.6 3.9-2.4 1.3-.8 2.7-1.5 4-2.1 1.3.6 2.7 1.3 4 2.1 1.4.8 2.7 1.6 3.9 2.4.1 1.5.2 3 .2 4.6s-.1 3.1-.2 4.6c-1.2.8-2.5 1.6-3.9 2.4zm3.5 1.5c-.2 1.2-.4 2.3-.6 3.3-1.1-.3-2.1-.7-3.2-1.1.7-.3 1.3-.7 2-1.1.5-.4 1.1-.8 1.8-1.1zm-11.1 2.2c-1.1.4-2.2.8-3.2 1.1-.2-1.1-.5-2.2-.6-3.3.6.4 1.3.8 1.9 1.2.6.3 1.3.6 1.9 1zm-7.5-8.5c-.9-.7-1.8-1.5-2.6-2.2.8-.7 1.7-1.5 2.6-2.2v2.2s0 1.5 0 2.2zm3.6-10.7c.2-1.2.4-2.3.6-3.3 1.1.3 2.1.7 3.2 1.1-.7.3-1.3.7-2 1.1-.5.4-1.1.8-1.8 1.1zm11.1-2.2c1.1-.4 2.2-.8 3.2-1.1.2 1.1.5 2.2.6 3.3-.6-.4-1.3-.8-1.9-1.2-.6-.3-1.3-.6-1.9-1zm7.5 8.5c.9.7 1.8 1.5 2.6 2.2-.8.7-1.7 1.5-2.6 2.2 0-.7 0-1.5 0-2.2s0-1.5 0-2.2zm-11.1-20.3c2.1 0 4.4 2.9 6 7.8-2 .6-4 1.3-6 2.3-2-.9-4.1-1.7-6-2.3 1.6-4.9 3.9-7.8 6-7.8zm-19.5 11.3c.7-1.2 2.5-1.8 5.1-1.8 1.4 0 3 .2 4.6.5-.5 1.9-.8 4.1-1 6.3-1.8 1.3-3.5 2.7-5 4.1-3.4-3.9-4.8-7.3-3.7-9.1zm5.1 24.3c-2.6 0-4.4-.7-5.1-1.8-1.1-1.9.3-5.3 3.7-9.1 1.5 1.4 3.1 2.7 5 4.1.2 2.3.6 4.4 1 6.3-1.6.3-3.2.5-4.6.5zm14.4 9.4c-2.1 0-4.4-2.9-6-7.8 2-.6 4-1.3 6-2.3 2 .9 4.1 1.7 6 2.3-1.6 4.9-3.9 7.8-6 7.8zm19.5-11.3c-.7 1.2-2.5 1.8-5.1 1.8-1.4 0-3-.2-4.6-.5.5-1.9.8-4.1 1-6.3 1.8-1.3 3.5-2.7 5-4.1 3.4 3.9 4.8 7.3 3.7 9.1z"/><circle cx="32" cy="34" r="3"/></g><g fill="#fff"><path d="m32 57.5c-6.3 0-11.1-11-11.1-25.5s4.8-25.5 11.1-25.5 11.1 11 11.1 25.5-4.8 25.5-11.1 25.5zm0-48c-3.8 0-8.1 9.2-8.1 22.5s4.3 22.5 8.1 22.5 8.1-9.2 8.1-22.5-4.3-22.5-8.1-22.5z"/><path d="m17.6 48.1c-4.8 0-6.8-1.8-7.7-3.3-3.2-5.5 3.9-15.1 16.5-22.4 7-4.1 14.5-6.5 19.9-6.5 4.8 0 6.8 1.8 7.7 3.3 3.2 5.5-3.9 15.1-16.5 22.4-7 4.1-14.4 6.5-19.9 6.5zm28.8-29.2c-4.9 0-11.8 2.3-18.4 6.1-11.5 6.6-17.4 14.9-15.4 18.3.7 1.2 2.5 1.8 5.1 1.8 4.9 0 11.8-2.3 18.4-6.1 11.5-6.6 17.4-14.9 15.4-18.3-.7-1.1-2.5-1.8-5.1-1.8z"/><path d="m17.6 48.1c-4.8 0-6.8-1.8-7.7-3.3-3.2-5.5 3.9-15.1 16.5-22.4 7-4.1 14.5-6.5 19.9-6.5 4.8 0 6.8 1.8 7.7 3.3 3.2 5.5-3.9 15.1-16.5 22.4-7 4.1-14.4 6.5-19.9 6.5zm28.8-29.2c-4.9 0-11.8 2.3-18.4 6.1-11.5 6.6-17.4 14.9-15.4 18.3.7 1.2 2.5 1.8 5.1 1.8 4.9 0 11.8-2.3 18.4-6.1 11.5-6.6 17.4-14.9 15.4-18.3-.7-1.1-2.5-1.8-5.1-1.8z"/><path d="m46.4 48.1c-5.4 0-12.9-2.4-19.9-6.5-12.6-7.3-19.7-16.9-16.6-22.4.9-1.5 2.9-3.3 7.7-3.3 5.4 0 12.9 2.4 19.9 6.5 12.6 7.3 19.7 16.9 16.5 22.4-.8 1.5-2.9 3.3-7.6 3.3zm-28.8-29.2c-2.6 0-4.4.7-5.1 1.8-1.9 3.3 4 11.6 15.4 18.3 6.6 3.8 13.5 6.1 18.4 6.1 2.6 0 4.4-.7 5.1-1.8 1.9-3.3-4-11.6-15.4-18.3-6.5-3.8-13.4-6.1-18.4-6.1z"/><circle cx="32" cy="32" r="3"/></g></svg>