<svg enable-background="new 0 0 64 64" viewBox="0 0 64 64" xmlns="http://www.w3.org/2000/svg"><circle cx="32" cy="32" fill="#4f5d73" r="32"/><path d="m34 31.2-2.6 1.6c1.5 1.8 2.4 4.1 2.4 6.6 0 5.6-4.6 10.2-10.2 10.2s-10.2-4.6-10.2-10.2c0-3.1 1.4-6 3.8-7.9.6-.5.7-1.5.2-2.1s-1.5-.7-2.1-.2c-3.1 2.5-4.9 6.2-4.9 10.2 0 7.3 5.9 13.2 13.2 13.2s13.2-5.9 13.2-13.2c0-3.1-1-5.9-2.8-8.2z" fill="#231f20" opacity=".2"/><path d="m26.3 25.2c5.1 1.2 9 5.8 9 11.4 0 6.4-5.2 11.7-11.7 11.7s-11.7-5.3-11.7-11.7c0-3.7 1.7-6.9 4.3-9.1" fill="none" stroke="#76c2af" stroke-linecap="round" stroke-miterlimit="10" stroke-width="3"/><path d="m32 38.3c-7.3 0-13.2-5.9-13.2-13.2 0-7.2 5.9-13.1 13.2-13.1 6.1 0 11.6 4.3 12.9 10.3.2.8-.3 1.6-1.1 1.8s-1.6-.3-1.8-1.1c-1-4.6-5.2-8-9.9-8-5.6 0-10.2 4.6-10.2 10.2s4.6 10.2 10.2 10.2c3 0 5.8-1.3 7.7-3.5.5-.6 1.5-.7 2.1-.2s.7 1.5.2 2.1c-2.7 2.9-6.3 4.5-10.1 4.5z" fill="#231f20" opacity=".2"/><path d="m40.8 30.1c-2.1 2.5-5.3 4-8.8 4-6.4 0-11.7-5.2-11.7-11.7s5.2-11.7 11.7-11.7c5.6 0 10.3 3.9 11.4 9.2" fill="none" stroke="#c75c5c" stroke-linecap="round" stroke-miterlimit="10" stroke-width="3"/><path d="m27.2 39.3c0 1.2.2 2.4.5 3.6.2.8 1.1 1.3 1.9 1 .8-.2 1.3-1.1 1-1.9-.3-.9-.4-1.8-.4-2.8 0-2.5.9-4.8 2.5-6.6l-2.4-1.8c-2 2.4-3.1 5.3-3.1 8.5z" fill="#231f20" opacity=".2"/><path d="m40.3 26.2c-4.1 0-7.7 1.9-10.1 4.8l2.4 1.8c1.9-2.2 4.6-3.6 7.7-3.6 5.6 0 10.2 4.6 10.2 10.2s-4.6 10.2-10.2 10.2c-1.4 0-2.7-.3-4-.8-.8-.3-1.6 0-2 .8-.3.8 0 1.6.8 2 1.6.7 3.4 1.1 5.2 1.1 7.3 0 13.2-5.9 13.2-13.2s-5.9-13.3-13.2-13.3z" fill="#231f20" opacity=".2"/><path d="m30.2 36.6c0-1.4-.7-3.3-.2-4.6-.9-.4-.8-.3-1.7-.7-.7 1.7-1.1 3.5-1.1 5.3 0 1.2.2 2.4.5 3.6.2.7.8 1.1 1.4 1.1.1 0 .3 0 .4-.1.8-.2 1.3-1.1 1-1.9-.2-.8-.3-1.8-.3-2.7z" fill="#77b3d4"/><path d="m29.1 39.8c-.3-1-.4-2.1-.4-3.2 0-6.4 5.2-11.7 11.7-11.7s11.6 5.2 11.6 11.7-5.2 11.7-11.7 11.7c-1.6 0-3.2-.3-4.6-.9" fill="none" stroke="#77b3d4" stroke-linecap="round" stroke-miterlimit="10" stroke-width="3"/><path d="m31.2 32.6h.5l2.2-1.3c-1.8-2.3-4.3-4-7.3-4.7-.8-.2-1.6.3-1.8 1.1s.3 1.6 1.1 1.8c2.2.4 3.9 1.5 5.3 3.1z" fill="#231f20" opacity=".2"/><path d="m26 26.7c3.2.8 5.7 2.9 6.9 5.8.4-.4.8-.7 1.3-.9s1-.3 1.5-.4c-1.6-3.7-4.9-6.5-9-7.4-.8-.2-1.6.3-1.8 1.1s.3 1.6 1.1 1.8z" fill="#76c2af"/></svg>